<mxfile host="app.diagrams.net" modified="2020-11-29T15:27:45.318Z" agent="5.0 (Windows NT 6.3; Win64; x64) AppleWebKit/537.36 (KHTML, like Gecko) Chrome/86.0.4240.198 Safari/537.36" etag="utTqNPRsPm1JR3hrkdnW" version="13.10.4" type="github">
  <diagram id="VBWb_MF_6VekWjtBwyfj" name="Page-1">
    <mxGraphModel dx="1886" dy="610" grid="0" gridSize="10" guides="1" tooltips="1" connect="1" arrows="1" fold="1" page="1" pageScale="1" pageWidth="827" pageHeight="1169" math="0" shadow="0">
      <root>
        <mxCell id="0" />
        <mxCell id="1" parent="0" />
        <mxCell id="JjaZK3aPunvva8pomJr4-2" value="" style="endArrow=classic;html=1;fillColor=#FF0000;strokeColor=#FF3333;" parent="1" edge="1">
          <mxGeometry width="50" height="50" relative="1" as="geometry">
            <mxPoint x="100" y="150" as="sourcePoint" />
            <mxPoint x="160" y="100" as="targetPoint" />
            <Array as="points">
              <mxPoint x="100" y="100" />
            </Array>
          </mxGeometry>
        </mxCell>
        <mxCell id="JjaZK3aPunvva8pomJr4-3" value="" style="endArrow=classic;html=1;fillColor=#FF0000;strokeColor=#FF3333;exitX=0.75;exitY=1;exitDx=0;exitDy=0;entryX=0;entryY=0.25;entryDx=0;entryDy=0;" parent="1" target="JjaZK3aPunvva8pomJr4-7" edge="1">
          <mxGeometry width="50" height="50" relative="1" as="geometry">
            <mxPoint x="100" y="200" as="sourcePoint" />
            <mxPoint x="414" y="340" as="targetPoint" />
            <Array as="points">
              <mxPoint x="100" y="250" />
            </Array>
          </mxGeometry>
        </mxCell>
        <mxCell id="JjaZK3aPunvva8pomJr4-4" value="" style="edgeStyle=segmentEdgeStyle;endArrow=classic;html=1;strokeColor=#FF3333;fillColor=#FF0000;entryX=0.5;entryY=0;entryDx=0;entryDy=0;exitX=1;exitY=0.25;exitDx=0;exitDy=0;" parent="1" source="JjaZK3aPunvva8pomJr4-5" target="JjaZK3aPunvva8pomJr4-9" edge="1">
          <mxGeometry width="50" height="50" relative="1" as="geometry">
            <mxPoint x="570" y="170" as="sourcePoint" />
            <mxPoint x="499.72" y="141" as="targetPoint" />
            <Array as="points" />
          </mxGeometry>
        </mxCell>
        <mxCell id="JjaZK3aPunvva8pomJr4-5" value="1" style="swimlane;childLayout=stackLayout;horizontal=1;startSize=30;horizontalStack=0;rounded=1;fontSize=14;fontStyle=0;strokeWidth=2;resizeParent=0;resizeLast=1;shadow=0;dashed=0;align=center;" parent="1" vertex="1">
          <mxGeometry x="163" y="70" width="130" height="70" as="geometry">
            <mxRectangle x="20" y="370" width="40" height="30" as="alternateBounds" />
          </mxGeometry>
        </mxCell>
        <mxCell id="JjaZK3aPunvva8pomJr4-6" value="Sign up with Hologram" style="text;html=1;align=center;verticalAlign=middle;resizable=0;points=[];autosize=1;" parent="JjaZK3aPunvva8pomJr4-5" vertex="1">
          <mxGeometry y="30" width="130" height="40" as="geometry" />
        </mxCell>
        <mxCell id="JjaZK3aPunvva8pomJr4-7" value="2" style="swimlane;childLayout=stackLayout;horizontal=1;startSize=30;horizontalStack=0;rounded=1;fontSize=14;fontStyle=0;strokeWidth=2;resizeParent=0;resizeLast=1;shadow=0;dashed=0;align=center;" parent="1" vertex="1">
          <mxGeometry x="180" y="230" width="113" height="80" as="geometry">
            <mxRectangle x="20" y="370" width="40" height="30" as="alternateBounds" />
          </mxGeometry>
        </mxCell>
        <mxCell id="JjaZK3aPunvva8pomJr4-8" value="Sign-in to Hologram" style="text;html=1;align=center;verticalAlign=middle;resizable=0;points=[];autosize=1;" parent="JjaZK3aPunvva8pomJr4-7" vertex="1">
          <mxGeometry y="30" width="113" height="50" as="geometry" />
        </mxCell>
        <mxCell id="JjaZK3aPunvva8pomJr4-9" value="3" style="swimlane;childLayout=stackLayout;horizontal=1;startSize=30;horizontalStack=0;rounded=1;fontSize=14;fontStyle=0;strokeWidth=2;resizeParent=0;resizeLast=1;shadow=0;dashed=0;align=center;" parent="1" vertex="1">
          <mxGeometry x="330" y="150" width="174.5" height="80" as="geometry">
            <mxRectangle x="20" y="370" width="40" height="30" as="alternateBounds" />
          </mxGeometry>
        </mxCell>
        <mxCell id="JjaZK3aPunvva8pomJr4-10" value="Search in Hologram Homepage" style="text;html=1;align=center;verticalAlign=middle;resizable=0;points=[];autosize=1;" parent="JjaZK3aPunvva8pomJr4-9" vertex="1">
          <mxGeometry y="30" width="174.5" height="50" as="geometry" />
        </mxCell>
        <mxCell id="JjaZK3aPunvva8pomJr4-11" value="4" style="swimlane;childLayout=stackLayout;horizontal=1;startSize=30;horizontalStack=0;rounded=1;fontSize=14;fontStyle=0;strokeWidth=2;resizeParent=0;resizeLast=1;shadow=0;dashed=0;align=center;" parent="1" vertex="1">
          <mxGeometry x="590" y="150" width="180" height="80" as="geometry">
            <mxRectangle x="20" y="370" width="40" height="30" as="alternateBounds" />
          </mxGeometry>
        </mxCell>
        <mxCell id="JjaZK3aPunvva8pomJr4-12" value="Display TV/Movie shows details" style="text;html=1;align=center;verticalAlign=middle;resizable=0;points=[];autosize=1;" parent="JjaZK3aPunvva8pomJr4-11" vertex="1">
          <mxGeometry y="30" width="180" height="50" as="geometry" />
        </mxCell>
        <mxCell id="JjaZK3aPunvva8pomJr4-13" value="D2&amp;nbsp; &amp;nbsp; Hologram TV/Movie show DB" style="html=1;dashed=0;whitespace=wrap;shape=mxgraph.dfd.dataStoreID;align=left;spacingLeft=3;points=[[0,0],[0.5,0],[1,0],[0,0.5],[1,0.5],[0,1],[0.5,1],[1,1]];" parent="1" vertex="1">
          <mxGeometry x="487.5" y="40" width="102.5" height="30" as="geometry" />
        </mxCell>
        <mxCell id="JjaZK3aPunvva8pomJr4-14" value="D1&amp;nbsp; &amp;nbsp; &amp;nbsp;Hologram User DB" style="html=1;dashed=0;whitespace=wrap;shape=mxgraph.dfd.dataStoreID;align=left;spacingLeft=3;points=[[0,0],[0.5,0],[1,0],[0,0.5],[1,0.5],[0,1],[0.5,1],[1,1]];" parent="1" vertex="1">
          <mxGeometry x="173" y="350" width="110" height="30" as="geometry" />
        </mxCell>
        <mxCell id="JjaZK3aPunvva8pomJr4-15" value="5" style="swimlane;childLayout=stackLayout;horizontal=1;startSize=30;horizontalStack=0;rounded=1;fontSize=14;fontStyle=0;strokeWidth=2;resizeParent=0;resizeLast=1;shadow=0;dashed=0;align=center;" parent="1" vertex="1">
          <mxGeometry x="590" y="280" width="185" height="80" as="geometry">
            <mxRectangle x="20" y="370" width="40" height="30" as="alternateBounds" />
          </mxGeometry>
        </mxCell>
        <mxCell id="JjaZK3aPunvva8pomJr4-16" value="Subscribe to streaming services" style="text;html=1;align=center;verticalAlign=middle;resizable=0;points=[];autosize=1;" parent="JjaZK3aPunvva8pomJr4-15" vertex="1">
          <mxGeometry y="30" width="185" height="50" as="geometry" />
        </mxCell>
        <mxCell id="JjaZK3aPunvva8pomJr4-17" value="6" style="swimlane;childLayout=stackLayout;horizontal=1;startSize=30;horizontalStack=0;rounded=1;fontSize=14;fontStyle=0;strokeWidth=2;resizeParent=0;resizeLast=1;shadow=0;dashed=0;align=center;" parent="1" vertex="1">
          <mxGeometry x="592.5" y="410" width="180" height="80" as="geometry">
            <mxRectangle x="20" y="370" width="40" height="30" as="alternateBounds" />
          </mxGeometry>
        </mxCell>
        <mxCell id="JjaZK3aPunvva8pomJr4-18" value="Payment through Hologram" style="text;html=1;align=center;verticalAlign=middle;resizable=0;points=[];autosize=1;" parent="JjaZK3aPunvva8pomJr4-17" vertex="1">
          <mxGeometry y="30" width="180" height="50" as="geometry" />
        </mxCell>
        <mxCell id="JjaZK3aPunvva8pomJr4-19" value="7" style="swimlane;childLayout=stackLayout;horizontal=1;startSize=30;horizontalStack=0;rounded=1;fontSize=14;fontStyle=0;strokeWidth=2;resizeParent=0;resizeLast=1;shadow=0;dashed=0;align=center;" parent="1" vertex="1">
          <mxGeometry x="595" y="545" width="175" height="85" as="geometry">
            <mxRectangle x="20" y="370" width="40" height="30" as="alternateBounds" />
          </mxGeometry>
        </mxCell>
        <mxCell id="JjaZK3aPunvva8pomJr4-21" value="Manage Subscription" style="text;html=1;align=center;verticalAlign=middle;resizable=0;points=[];autosize=1;" parent="JjaZK3aPunvva8pomJr4-19" vertex="1">
          <mxGeometry y="30" width="175" height="55" as="geometry" />
        </mxCell>
        <mxCell id="JjaZK3aPunvva8pomJr4-22" value="8" style="swimlane;childLayout=stackLayout;horizontal=1;startSize=30;horizontalStack=0;rounded=1;fontSize=14;fontStyle=0;strokeWidth=2;resizeParent=0;resizeLast=1;shadow=0;dashed=0;align=center;" parent="1" vertex="1">
          <mxGeometry x="327.25" y="550" width="180" height="80" as="geometry">
            <mxRectangle x="20" y="370" width="40" height="30" as="alternateBounds" />
          </mxGeometry>
        </mxCell>
        <mxCell id="JjaZK3aPunvva8pomJr4-23" value="Settlement with Merchant" style="text;html=1;align=center;verticalAlign=middle;resizable=0;points=[];autosize=1;" parent="JjaZK3aPunvva8pomJr4-22" vertex="1">
          <mxGeometry y="30" width="180" height="50" as="geometry" />
        </mxCell>
        <mxCell id="JjaZK3aPunvva8pomJr4-24" value="D1&amp;nbsp; &amp;nbsp; &amp;nbsp;Hologram User DB" style="html=1;dashed=0;whitespace=wrap;shape=mxgraph.dfd.dataStoreID;align=left;spacingLeft=3;points=[[0,0],[0.5,0],[1,0],[0,0.5],[1,0.5],[0,1],[0.5,1],[1,1]];" parent="1" vertex="1">
          <mxGeometry x="173" y="10" width="110" height="30" as="geometry" />
        </mxCell>
        <mxCell id="JjaZK3aPunvva8pomJr4-25" value="" style="endArrow=classic;html=1;fillColor=#FF0000;strokeColor=#FF3333;entryX=0.423;entryY=-0.014;entryDx=0;entryDy=0;entryPerimeter=0;exitX=0.409;exitY=1.033;exitDx=0;exitDy=0;exitPerimeter=0;" parent="1" source="JjaZK3aPunvva8pomJr4-24" target="JjaZK3aPunvva8pomJr4-5" edge="1">
          <mxGeometry width="50" height="50" relative="1" as="geometry">
            <mxPoint x="220" y="50" as="sourcePoint" />
            <mxPoint x="260" y="60" as="targetPoint" />
          </mxGeometry>
        </mxCell>
        <mxCell id="JjaZK3aPunvva8pomJr4-26" value="" style="edgeStyle=segmentEdgeStyle;endArrow=classic;html=1;strokeColor=#FF3333;fillColor=#FF0000;entryX=0.539;entryY=1.08;entryDx=0;entryDy=0;entryPerimeter=0;exitX=0.991;exitY=0.4;exitDx=0;exitDy=0;exitPerimeter=0;" parent="1" source="JjaZK3aPunvva8pomJr4-8" target="JjaZK3aPunvva8pomJr4-10" edge="1">
          <mxGeometry width="50" height="50" relative="1" as="geometry">
            <mxPoint x="293" y="277" as="sourcePoint" />
            <mxPoint x="488" y="217" as="targetPoint" />
            <Array as="points">
              <mxPoint x="293" y="280" />
              <mxPoint x="293" y="285" />
              <mxPoint x="424" y="285" />
            </Array>
          </mxGeometry>
        </mxCell>
        <mxCell id="JjaZK3aPunvva8pomJr4-27" value="" style="endArrow=classic;html=1;fillColor=#FF0000;strokeColor=#FF3333;exitX=0.5;exitY=0;exitDx=0;exitDy=0;entryX=0.416;entryY=1;entryDx=0;entryDy=0;entryPerimeter=0;" parent="1" source="JjaZK3aPunvva8pomJr4-14" target="JjaZK3aPunvva8pomJr4-8" edge="1">
          <mxGeometry width="50" height="50" relative="1" as="geometry">
            <mxPoint x="110" y="210" as="sourcePoint" />
            <mxPoint x="230" y="313" as="targetPoint" />
            <Array as="points" />
          </mxGeometry>
        </mxCell>
        <mxCell id="JjaZK3aPunvva8pomJr4-28" value="" style="endArrow=classic;html=1;fillColor=#FF0000;strokeColor=#FF3333;entryX=0.802;entryY=0.013;entryDx=0;entryDy=0;entryPerimeter=0;exitX=0.263;exitY=1.067;exitDx=0;exitDy=0;exitPerimeter=0;" parent="1" source="JjaZK3aPunvva8pomJr4-13" target="JjaZK3aPunvva8pomJr4-9" edge="1">
          <mxGeometry width="50" height="50" relative="1" as="geometry">
            <mxPoint x="470" y="103" as="sourcePoint" />
            <mxPoint x="475" y="145" as="targetPoint" />
          </mxGeometry>
        </mxCell>
        <mxCell id="JjaZK3aPunvva8pomJr4-29" value="" style="edgeStyle=segmentEdgeStyle;endArrow=classic;html=1;strokeColor=#FF3333;fillColor=#FF0000;" parent="1" source="JjaZK3aPunvva8pomJr4-10" edge="1">
          <mxGeometry width="50" height="50" relative="1" as="geometry">
            <mxPoint x="520" y="210" as="sourcePoint" />
            <mxPoint x="590" y="205" as="targetPoint" />
            <Array as="points" />
          </mxGeometry>
        </mxCell>
        <mxCell id="JjaZK3aPunvva8pomJr4-30" value="" style="edgeStyle=segmentEdgeStyle;endArrow=classic;html=1;strokeColor=#FF3333;fillColor=#FF0000;exitX=0.511;exitY=0.98;exitDx=0;exitDy=0;exitPerimeter=0;" parent="1" source="JjaZK3aPunvva8pomJr4-12" edge="1">
          <mxGeometry width="50" height="50" relative="1" as="geometry">
            <mxPoint x="683" y="240" as="sourcePoint" />
            <mxPoint x="683" y="280" as="targetPoint" />
            <Array as="points">
              <mxPoint x="683" y="229" />
            </Array>
          </mxGeometry>
        </mxCell>
        <mxCell id="JjaZK3aPunvva8pomJr4-31" value="" style="edgeStyle=segmentEdgeStyle;endArrow=classic;html=1;strokeColor=#FF3333;fillColor=#FF0000;entryX=0.5;entryY=0;entryDx=0;entryDy=0;" parent="1" target="JjaZK3aPunvva8pomJr4-17" edge="1">
          <mxGeometry width="50" height="50" relative="1" as="geometry">
            <mxPoint x="683" y="360" as="sourcePoint" />
            <mxPoint x="693" y="380" as="targetPoint" />
            <Array as="points">
              <mxPoint x="683" y="383" />
            </Array>
          </mxGeometry>
        </mxCell>
        <mxCell id="JjaZK3aPunvva8pomJr4-32" value="" style="edgeStyle=segmentEdgeStyle;endArrow=classic;html=1;strokeColor=#FF3333;fillColor=#FF0000;entryX=0.5;entryY=0;entryDx=0;entryDy=0;" parent="1" edge="1">
          <mxGeometry width="50" height="50" relative="1" as="geometry">
            <mxPoint x="680" y="491" as="sourcePoint" />
            <mxPoint x="679.5" y="545" as="targetPoint" />
            <Array as="points">
              <mxPoint x="680" y="518" />
            </Array>
          </mxGeometry>
        </mxCell>
        <mxCell id="JjaZK3aPunvva8pomJr4-33" value="" style="edgeStyle=segmentEdgeStyle;endArrow=classic;html=1;strokeColor=#FF3333;fillColor=#FF0000;exitX=0;exitY=0.75;exitDx=0;exitDy=0;entryX=0.626;entryY=-0.05;entryDx=0;entryDy=0;entryPerimeter=0;" parent="1" source="JjaZK3aPunvva8pomJr4-17" target="JjaZK3aPunvva8pomJr4-22" edge="1">
          <mxGeometry width="50" height="50" relative="1" as="geometry">
            <mxPoint x="561" y="480" as="sourcePoint" />
            <mxPoint x="440" y="540" as="targetPoint" />
            <Array as="points">
              <mxPoint x="593" y="480" />
              <mxPoint x="440" y="480" />
            </Array>
          </mxGeometry>
        </mxCell>
        <mxCell id="JjaZK3aPunvva8pomJr4-34" value="" style="endArrow=classic;html=1;fillColor=#FF0000;strokeColor=#FF3333;exitX=0.909;exitY=1.067;exitDx=0;exitDy=0;exitPerimeter=0;entryX=0.167;entryY=0;entryDx=0;entryDy=0;entryPerimeter=0;" parent="1" source="JjaZK3aPunvva8pomJr4-13" target="JjaZK3aPunvva8pomJr4-11" edge="1">
          <mxGeometry width="50" height="50" relative="1" as="geometry">
            <mxPoint x="480" y="113" as="sourcePoint" />
            <mxPoint x="630" y="102" as="targetPoint" />
          </mxGeometry>
        </mxCell>
        <mxCell id="JjaZK3aPunvva8pomJr4-36" value="" style="edgeStyle=segmentEdgeStyle;endArrow=classic;html=1;strokeColor=#FF3333;fillColor=#FF0000;exitX=0;exitY=0.75;exitDx=0;exitDy=0;" parent="1" target="JjaZK3aPunvva8pomJr4-16" edge="1">
          <mxGeometry width="50" height="50" relative="1" as="geometry">
            <mxPoint x="810" y="343.75" as="sourcePoint" />
            <mxPoint x="778" y="339" as="targetPoint" />
            <Array as="points">
              <mxPoint x="810" y="339" />
            </Array>
          </mxGeometry>
        </mxCell>
        <mxCell id="JjaZK3aPunvva8pomJr4-37" value="D3&amp;nbsp; &amp;nbsp; &amp;nbsp;User Payment details" style="html=1;dashed=0;whitespace=wrap;shape=mxgraph.dfd.dataStoreID;align=left;spacingLeft=3;points=[[0,0],[0.5,0],[1,0],[0,0.5],[1,0.5],[0,1],[0.5,1],[1,1]];" parent="1" vertex="1">
          <mxGeometry x="437" y="420" width="106" height="30" as="geometry" />
        </mxCell>
        <mxCell id="JjaZK3aPunvva8pomJr4-38" value="" style="edgeStyle=segmentEdgeStyle;endArrow=classic;html=1;strokeColor=#FF3333;fillColor=#FF0000;" parent="1" edge="1">
          <mxGeometry width="50" height="50" relative="1" as="geometry">
            <mxPoint x="524" y="420" as="sourcePoint" />
            <mxPoint x="630" y="410" as="targetPoint" />
            <Array as="points">
              <mxPoint x="524" y="380" />
              <mxPoint x="630" y="380" />
            </Array>
          </mxGeometry>
        </mxCell>
        <mxCell id="JjaZK3aPunvva8pomJr4-39" value="" style="edgeStyle=segmentEdgeStyle;endArrow=classic;html=1;strokeColor=#FF3333;fillColor=#FF0000;entryX=0.5;entryY=1;entryDx=0;entryDy=0;" parent="1" target="JjaZK3aPunvva8pomJr4-37" edge="1">
          <mxGeometry width="50" height="50" relative="1" as="geometry">
            <mxPoint x="590" y="460" as="sourcePoint" />
            <mxPoint x="490" y="460" as="targetPoint" />
            <Array as="points">
              <mxPoint x="590" y="470" />
              <mxPoint x="490" y="470" />
            </Array>
          </mxGeometry>
        </mxCell>
        <mxCell id="JjaZK3aPunvva8pomJr4-41" value="" style="edgeStyle=segmentEdgeStyle;endArrow=classic;html=1;strokeColor=#FF3333;fillColor=#FF0000;exitX=0;exitY=0.75;exitDx=0;exitDy=0;" parent="1" edge="1">
          <mxGeometry width="50" height="50" relative="1" as="geometry">
            <mxPoint x="820" y="453.75" as="sourcePoint" />
            <mxPoint x="775" y="450" as="targetPoint" />
            <Array as="points">
              <mxPoint x="820" y="450" />
            </Array>
          </mxGeometry>
        </mxCell>
        <mxCell id="JjaZK3aPunvva8pomJr4-43" value="" style="edgeStyle=segmentEdgeStyle;endArrow=classic;html=1;strokeColor=#FF3333;fillColor=#FF0000;exitX=1;exitY=0.75;exitDx=0;exitDy=0;" parent="1" edge="1">
          <mxGeometry width="50" height="50" relative="1" as="geometry">
            <mxPoint x="250" y="601.25" as="sourcePoint" />
            <mxPoint x="324" y="601" as="targetPoint" />
            <Array as="points">
              <mxPoint x="324" y="601" />
            </Array>
          </mxGeometry>
        </mxCell>
        <mxCell id="JjaZK3aPunvva8pomJr4-44" value="&lt;span style=&quot;color: rgba(0 , 0 , 0 , 0) ; font-family: monospace ; font-size: 0px&quot;&gt;%3CmxGraphModel%3E%3Croot%3E%3CmxCell%20id%3D%220%22%2F%3E%3CmxCell%20id%3D%221%22%20parent%3D%220%22%2F%3E%3CmxCell%20id%3D%222%22%20value%3D%22Login%20Credential%22%20style%3D%22text%3Bhtml%3D1%3Balign%3Dcenter%3BverticalAlign%3Dmiddle%3Bresizable%3D0%3Bpoints%3D%5B%5D%3Bautosize%3D1%3B%22%20vertex%3D%221%22%20parent%3D%221%22%3E%3CmxGeometry%20x%3D%22360%22%20y%3D%2260%22%20width%3D%22100%22%20height%3D%2220%22%20as%3D%22geometry%22%2F%3E%3C%2FmxCell%3E%3C%2Froot%3E%3C%2FmxGraphModel%3E&lt;/span&gt;" style="text;html=1;resizable=0;autosize=1;align=center;verticalAlign=middle;points=[];fillColor=none;strokeColor=none;rounded=0;" parent="1" vertex="1">
          <mxGeometry x="400" y="310" width="20" height="20" as="geometry" />
        </mxCell>
        <mxCell id="JjaZK3aPunvva8pomJr4-45" value="New user" style="text;html=1;align=center;verticalAlign=middle;resizable=0;points=[];autosize=1;" parent="1" vertex="1">
          <mxGeometry x="35" y="80" width="70" height="20" as="geometry" />
        </mxCell>
        <mxCell id="JjaZK3aPunvva8pomJr4-46" value="Existing User" style="text;html=1;align=center;verticalAlign=middle;resizable=0;points=[];autosize=1;" parent="1" vertex="1">
          <mxGeometry x="10" y="230" width="90" height="20" as="geometry" />
        </mxCell>
        <mxCell id="JjaZK3aPunvva8pomJr4-47" value="Login Credential" style="text;html=1;align=center;verticalAlign=middle;resizable=0;points=[];autosize=1;" parent="1" vertex="1">
          <mxGeometry x="360" y="60" width="100" height="20" as="geometry" />
        </mxCell>
        <mxCell id="JjaZK3aPunvva8pomJr4-48" value="Login Credential" style="text;html=1;align=center;verticalAlign=middle;resizable=0;points=[];autosize=1;" parent="1" vertex="1">
          <mxGeometry x="364" y="300" width="100" height="20" as="geometry" />
        </mxCell>
        <mxCell id="JjaZK3aPunvva8pomJr4-49" value="Search content&lt;br&gt;&amp;nbsp;and details" style="text;html=1;align=center;verticalAlign=middle;resizable=0;points=[];autosize=1;" parent="1" vertex="1">
          <mxGeometry x="495" y="175" width="100" height="30" as="geometry" />
        </mxCell>
        <mxCell id="JjaZK3aPunvva8pomJr4-50" value="Streaming Services" style="text;html=1;align=center;verticalAlign=middle;resizable=0;points=[];autosize=1;" parent="1" vertex="1">
          <mxGeometry x="690" y="245" width="120" height="20" as="geometry" />
        </mxCell>
        <mxCell id="JjaZK3aPunvva8pomJr4-51" value="Subscription/plans" style="text;html=1;align=center;verticalAlign=middle;resizable=0;points=[];autosize=1;" parent="1" vertex="1">
          <mxGeometry x="755" y="365" width="110" height="20" as="geometry" />
        </mxCell>
        <mxCell id="JjaZK3aPunvva8pomJr4-52" value="plan&lt;br&gt;&amp;nbsp;selected" style="text;html=1;align=center;verticalAlign=middle;resizable=0;points=[];autosize=1;" parent="1" vertex="1">
          <mxGeometry x="680" y="365" width="60" height="30" as="geometry" />
        </mxCell>
        <mxCell id="JjaZK3aPunvva8pomJr4-53" value="amount &lt;br&gt;deducted" style="text;html=1;align=center;verticalAlign=middle;resizable=0;points=[];autosize=1;" parent="1" vertex="1">
          <mxGeometry x="770" y="465" width="60" height="30" as="geometry" />
        </mxCell>
        <mxCell id="JjaZK3aPunvva8pomJr4-54" value="Payment success" style="text;html=1;align=center;verticalAlign=middle;resizable=0;points=[];autosize=1;" parent="1" vertex="1">
          <mxGeometry x="680" y="510" width="110" height="20" as="geometry" />
        </mxCell>
        <mxCell id="JjaZK3aPunvva8pomJr4-55" value="Payment success" style="text;html=1;align=center;verticalAlign=middle;resizable=0;points=[];autosize=1;" parent="1" vertex="1">
          <mxGeometry x="450" y="510" width="110" height="20" as="geometry" />
        </mxCell>
        <mxCell id="JjaZK3aPunvva8pomJr4-56" value="amount" style="text;html=1;align=center;verticalAlign=middle;resizable=0;points=[];autosize=1;" parent="1" vertex="1">
          <mxGeometry x="242.25" y="610" width="60" height="20" as="geometry" />
        </mxCell>
        <mxCell id="9c8K84tOxtjKwa_CXReW-5" value="&lt;span&gt;&amp;nbsp; &amp;nbsp; &amp;nbsp; &amp;nbsp;&lt;br&gt;User/Customer&lt;/span&gt;" style="html=1;dashed=0;whitespace=wrap;shape=mxgraph.dfd.externalEntity;shadow=0;" vertex="1" parent="1">
          <mxGeometry x="35" y="150" width="125" height="70" as="geometry" />
        </mxCell>
        <mxCell id="9c8K84tOxtjKwa_CXReW-6" value="." style="autosize=1;part=1;resizable=0;strokeColor=#FFFFFF;fillColor=inherit;gradientColor=inherit;" vertex="1" parent="9c8K84tOxtjKwa_CXReW-5">
          <mxGeometry width="20" height="20" relative="1" as="geometry">
            <mxPoint x="15" y="15" as="offset" />
          </mxGeometry>
        </mxCell>
        <mxCell id="9c8K84tOxtjKwa_CXReW-7" value="&lt;span&gt;&amp;nbsp; &amp;nbsp;OTT Platforms&lt;/span&gt;" style="html=1;dashed=0;whitespace=wrap;shape=mxgraph.dfd.externalEntity;shadow=0;" vertex="1" parent="1">
          <mxGeometry x="810" y="310" width="150" height="50" as="geometry" />
        </mxCell>
        <mxCell id="9c8K84tOxtjKwa_CXReW-8" value="." style="autosize=1;part=1;resizable=0;strokeColor=#FFFFFF;fillColor=inherit;gradientColor=inherit;" vertex="1" parent="9c8K84tOxtjKwa_CXReW-7">
          <mxGeometry width="20" height="20" relative="1" as="geometry">
            <mxPoint x="15" y="15" as="offset" />
          </mxGeometry>
        </mxCell>
        <mxCell id="9c8K84tOxtjKwa_CXReW-9" value="&lt;span&gt;User Bank&lt;/span&gt;" style="html=1;dashed=0;whitespace=wrap;shape=mxgraph.dfd.externalEntity;shadow=0;" vertex="1" parent="1">
          <mxGeometry x="820" y="420" width="150" height="50" as="geometry" />
        </mxCell>
        <mxCell id="9c8K84tOxtjKwa_CXReW-10" value="." style="autosize=1;part=1;resizable=0;strokeColor=#FFFFFF;fillColor=#FFFFFF;gradientColor=inherit;" vertex="1" parent="9c8K84tOxtjKwa_CXReW-9">
          <mxGeometry width="20" height="20" relative="1" as="geometry">
            <mxPoint x="15" y="15" as="offset" />
          </mxGeometry>
        </mxCell>
        <mxCell id="9c8K84tOxtjKwa_CXReW-11" value="&lt;span&gt;OTT Banks&lt;/span&gt;" style="html=1;dashed=0;whitespace=wrap;shape=mxgraph.dfd.externalEntity;shadow=0;" vertex="1" parent="1">
          <mxGeometry x="100" y="580" width="150" height="50" as="geometry" />
        </mxCell>
        <mxCell id="9c8K84tOxtjKwa_CXReW-12" value="." style="autosize=1;part=1;resizable=0;strokeColor=#FFFFFF;fillColor=inherit;gradientColor=inherit;" vertex="1" parent="9c8K84tOxtjKwa_CXReW-11">
          <mxGeometry width="20" height="20" relative="1" as="geometry">
            <mxPoint x="15" y="15" as="offset" />
          </mxGeometry>
        </mxCell>
        <mxCell id="9c8K84tOxtjKwa_CXReW-13" value="Text" style="text;html=1;align=center;verticalAlign=middle;resizable=0;points=[];autosize=1;" vertex="1" parent="1">
          <mxGeometry x="1070" y="50" width="40" height="20" as="geometry" />
        </mxCell>
      </root>
    </mxGraphModel>
  </diagram>
</mxfile>
